# xmcd CD database file
#
# Track frame offsets:
#	150
#	15315
#	31414
#	42238
#	53547
#	65404
#	78231
#	89652
#	111648
#	123966
#	134378
#	150893
#	171146
#	190258
#	210169
#	225788
#	241708
#	257556
#	278069
#	299282
#	311322
#	323482
#
# Disc length: 4442 seconds
#
# Revision: 3
# Processed by: cddbd v1.5.1PL2 Copyright (c) Steve Scherf et al.
# Submitted via: CDex 1.51
#
DISCID=10115816
DTITLE=Cozy Cole - Cozy Cole/Savina
DYEAR=1944
DGENRE=Jazz
TTITLE0=Topsy Part 1
TTITLE1=Topsy Part 2
TTITLE2=Turvy Part 1
TTITLE3=Turvy Part 2
TTITLE4=Topsy-Turvy Part 1
TTITLE5=Topsy-Turvy Part 2
TTITLE6=Bad
TTITLE7=Caravan
TTITLE8=Crescendo
TTITLE9=Late and Lazy
TTITLE10=The Man I Love
TTITLE11=In My Solitude
TTITLE12=It Don't Mean A Thing
TTITLE13=Can't We Be Friends
TTITLE14=You Go to My Head
TTITLE15=Body and Soul
TTITLE16=Too Marvelous for Words
TTITLE17=I Cover the Waterfront
TTITLE18=Mood Indigo
TTITLE19=How Come You Do Me (Like You Do)
TTITLE20=(Do I Love You?) Deed I Do
TTITLE21=I Can Be Soft As A Kitten
EXTD=YEAR: 1944
EXTT0=
EXTT1=
EXTT2=
EXTT3=
EXTT4=
EXTT5=
EXTT6=
EXTT7=
EXTT8=
EXTT9=
EXTT10=
EXTT11=
EXTT12=
EXTT13=
EXTT14=
EXTT15=
EXTT16=
EXTT17=
EXTT18=
EXTT19=
EXTT20=
EXTT21=
PLAYORDER=
